<svg height="496pt" viewBox="0 0 496 496" width="496pt" xmlns="http://www.w3.org/2000/svg"><path d="m232 103.945312h16v16h-16zm0 0"/><path d="m104 103.945312h16v16h-16zm0 0"/><path d="m479.6875 413.746094c-1.511719-8.050782-11.542969-13.089844-33.734375-16.992188-34.769531-6.113281-89.144531-6.113281-123.90625 0-7.34375 1.285156-13.214844 2.726563-18.046875 4.328125v-61.257812c0-43.054688-15.894531-83.574219-44.632812-115.238281 7.554687-11 12.160156-24.175782 12.601562-38.394532 7.558594-12.949218 13.183594-26.710937 17.207031-40.992187 3.640625 4.175781 8.894531 6.746093 14.6875 6.746093 8.214844 0 15.625-5.183593 18.441407-12.914062l28.085937-77.253906c1.066406-2.9375 1.609375-6.007813 1.609375-9.136719 0-11-6.601562-20.753906-16.816406-24.839844l-63.496094-25.390625c-12.589844-5.042968-27.464844-1.992187-37.0625 7.605469l-13.992188 13.992187-89.320312-.0625-13.9375-13.9375c-9.597656-9.597656-24.472656-12.640624-37.0625-7.605468l-63.488281 25.398437c-10.222657 4.085938-16.824219 13.832031-16.824219 24.839844 0 3.128906.542969 6.199219 1.609375 9.144531l28.09375 77.253906c2.808594 7.722657 10.21875 12.90625 18.433594 12.90625 5.792969 0 11.039062-2.570312 14.6875-6.746093 4.023437 14.28125 9.648437 28.042969 17.207031 40.992187.441406 14.21875 5.046875 27.394532 12.601562 38.394532-28.738281 31.664062-44.632812 72.183593-44.632812 115.238281v82.230469c0 7.984374-4.441406 15.160156-11.574219 18.730468-12.601562 6.304688-20.425781 18.96875-20.425781 33.046875v6.113281c0 8.824219 7.175781 16 16 16h88c13.230469 0 24-10.769531 24-24v-8h64v8c0 13.230469 10.769531 24 24 24h264v-24zm-95.6875-5.800782c33.367188 0 61.558594 4.070313 74.320312 8-12.761718 3.925782-40.953124 8-74.320312 8s-61.558594-4.074218-74.320312-8c12.761718-3.929687 40.953124-8 74.320312-8zm-96 6.878907-2.097656 7.328125c-12.679688-4.246094-21.902344-16.113282-21.902344-30.207032 0-14.863281 10.238281-27.289062 24-30.863281zm-120-226.191407-7.03125-7.03125c-.617188-.617187-.96875-1.472656-.96875-2.34375 0-1.824218 1.488281-3.3125 3.3125-3.3125h25.375c1.824219 0 3.3125 1.488282 3.3125 3.3125 0 .871094-.351562 1.726563-.96875 2.34375l-7.03125 7.03125c-4.207031 4.207032-11.792969 4.207032-16 0zm22.238281 67.3125-2.949219 14.742188c-1.074218 5.359375-5.816406 9.257812-11.289062 9.257812s-10.214844-3.898437-11.296875-9.257812l-2.941406-14.742188zm17.761719-32v4c0 6.617188-5.382812 12-12 12s-12-5.382812-12-12v-21.320312c4.207031-1.289062 8.113281-3.480469 11.3125-6.679688l7.03125-7.03125c3.648438-3.648437 5.65625-8.496093 5.65625-13.65625 0-10.648437-8.664062-19.3125-19.3125-19.3125h-25.375c-10.648438 0-19.3125 8.664063-19.3125 19.3125 0 5.160157 2.007812 10.007813 5.65625 13.65625l7.03125 7.03125c3.199219 3.199219 7.105469 5.390626 11.3125 6.679688v21.320312c0 6.617188-5.382812 12-12 12s-12-5.382812-12-12v-4h-16v4c0 2.429688.40625 4.75.992188 7-18.273438-8.28125-31.3125-26.066406-32.792969-47.023437 45.015625-31.800781 71.800781-83.191406 71.800781-138.503906v-9.464844h16v9.457031c0 55.320313 26.785156 106.710938 71.800781 138.503906-1.480469 20.957032-14.519531 38.742188-32.792969 47.023438.585938-2.242188.992188-4.5625.992188-6.992188v-4zm37.9375-202.625c5.125-5.128906 13.070312-6.769531 19.804688-4.0625l63.503906 25.398438c4.097656 1.640625 6.753906 5.558594 6.753906 9.984375 0 1.257813-.214844 2.496094-.648438 3.671875l-28.085937 77.25c-1.027344 2.832031-5.640625 2.894531-6.761719.109375l-10.054687-25.136719c-11.847657-29.628906-30.648438-56.125-54.617188-77.109375zm29.65625 93.160157 2.574219 6.433593c-2.6875 18.039063-8.441407 35.199219-16.9375 51.246094-38.488281-28.96875-61.230469-74.207031-61.230469-122.742187v-9.464844h21.070312c24.082032 19.855469 42.929688 45.535156 54.523438 74.527344zm-230.859375 19.089843-28.085937-77.25c-.433594-1.183593-.648438-2.421874-.648438-3.679687 0-4.425781 2.65625-8.335937 6.761719-9.984375l63.496093-25.398438c2.183594-.875 4.46875-1.3125 6.820313-1.3125 4.90625 0 9.523437 1.910157 12.992187 5.375l10.097657 10.097657c-23.976563 20.992187-42.769531 47.488281-54.617188 77.109375l-10.046875 25.136718c-1.128906 2.792969-5.734375 2.71875-6.769531-.09375zm29.097656-12.65625 2.574219-6.433593c11.59375-28.992188 30.449219-54.679688 54.539062-74.535157h21.054688v9.464844c0 48.535156-22.742188 93.773438-61.230469 122.742188-8.496093-16.039063-14.25-33.199219-16.9375-51.238282zm9.566407 143.636719c12.847656 8.890625 20.601562 23.394531 20.601562 39.394531 0 23.734376-17.335938 43.449219-40 47.277344v-11.390625c0-26.777343 6.785156-52.480469 19.398438-75.28125zm60.601562 183.394531v-72c0-17.648437 14.351562-32 32-32s32 14.351563 32 32v72zm80 24v-96c0-26.472656-21.527344-48-48-48s-48 21.527344-48 48v96c0 4.40625-3.59375 8-8 8h-88v-6.113281c0-7.984375 4.441406-15.160156 11.574219-18.726562 12.601562-6.304688 20.425781-18.96875 20.425781-33.050781v-54.671876c31.519531-3.957031 56-30.871093 56-63.445312 0-21.601562-10.566406-41.191406-28.089844-53 3.441406-4.9375 7.234375-9.648438 11.265625-14.207031 11.320313 10.476562 25.96875 17.390625 42.191407 18.878906l3.640624 18.207031c2.578126 12.824219 13.921876 22.128906 26.992188 22.128906s24.414062-9.304687 26.984375-22.121093l3.640625-18.207031c16.222656-1.488282 30.871094-8.402344 42.191406-18.878907 25.238282 28.503907 39.183594 64.6875 39.183594 103.085938v4.839843c-22.664062 3.824219-40 23.535157-40 47.28125 0 21.398438 14.089844 39.566407 33.472656 45.734376l-9.160156 32.066406-.175781 10.199218h-40.136719c-4.40625 0-8-3.59375-8-8zm256 8h-192v-6.878906l12.425781-43.496094c5.300781 2.132813 12.40625 3.949219 21.613281 5.566407 17.394532 3.054687 39.96875 4.808593 61.960938 4.808593s44.566406-1.753906 61.953125-4.808593c9.207031-1.617188 16.320313-3.433594 21.613281-5.566407l12.433594 43.496094zm0 0"/><path d="m376 455.945312h16v16h-16zm0 0"/><path d="m344 455.945312h16v16h-16zm0 0"/><path d="m408 455.945312h16v16h-16zm0 0"/><path d="m320 246.976562c0 13.769532 11.199219 24.96875 24.96875 24.96875 6.671875 0 12.941406-2.601562 17.65625-7.3125l8.6875-8.6875h41.375l8.6875 8.6875c4.714844 4.710938 10.984375 7.3125 17.65625 7.3125 13.769531 0 24.96875-11.199218 24.96875-24.96875 0-5.496093-1.761719-10.71875-5.023438-15.03125 3.261719-4.3125 5.023438-9.535156 5.023438-15.03125 0-13.769531-11.199219-24.96875-24.96875-24.96875-6.671875 0-12.941406 2.597657-17.65625 7.3125l-8.6875 8.6875h-41.375l-8.6875-8.6875c-4.714844-4.714843-10.984375-7.3125-17.65625-7.3125-13.769531 0-24.96875 11.199219-24.96875 24.96875 0 5.496094 1.761719 10.71875 5.023438 15.03125-3.261719 4.3125-5.023438 9.535157-5.023438 15.03125zm18.625-23.71875c-1.6875-1.695312-2.625-3.945312-2.625-6.34375 0-4.945312 4.023438-8.96875 8.96875-8.96875 2.398438 0 4.648438.933594 6.34375 2.625l13.375 13.375h54.625l13.375-13.375c1.695312-1.691406 3.945312-2.625 6.34375-2.625 4.945312 0 8.96875 4.023438 8.96875 8.96875 0 2.398438-.9375 4.648438-2.625 6.34375l-8.6875 8.6875 8.6875 8.6875c1.6875 1.695313 2.625 3.945313 2.625 6.34375 0 4.945313-4.023438 8.96875-8.96875 8.96875-2.398438 0-4.648438-.9375-6.34375-2.625l-13.375-13.375h-54.625l-13.375 13.375c-1.695312 1.6875-3.945312 2.625-6.34375 2.625-4.945312 0-8.96875-4.023437-8.96875-8.96875 0-2.398437.9375-4.648437 2.625-6.34375l8.6875-8.6875zm0 0"/><path d="m288 231.945312c0 42 25.496094 79.847657 64 95.910157v49.90625l47.480469-42.199219c54.351562-3.867188 96.519531-48.832031 96.519531-103.617188 0-57.34375-46.65625-104-104-104s-104 46.65625-104 104zm104-88c48.519531 0 88 39.480469 88 88 0 47.167969-36.945312 85.726563-84.113281 87.792969l-2.839844.125-25.046875 22.265625v-25.417968l-5.328125-1.886719c-35.097656-12.421875-58.671875-45.734375-58.671875-82.878907 0-48.519531 39.480469-88 88-88zm0 0"/></svg>